<svg xmlns="http://www.w3.org/2000/svg" width="1054" height="1080" viewBox="0 0 1054 1080" version="1.1"><path d="M 416.667 278.667 C 415.366 279.968, 416.056 280.714, 420.750 283.079 C 427.173 286.316, 445.780 296.810, 448.945 298.981 C 450.350 299.945, 455.416 303.309, 460.201 306.456 C 469.140 312.334, 473.439 316.103, 469.528 314.633 C 467.902 314.022, 428.269 306.991, 403.173 302.861 C 396.858 301.822, 395.288 302.038, 396.376 303.800 C 396.994 304.799, 407.608 309.266, 431.250 318.475 C 439.363 321.636, 446 324.359, 446 324.528 C 446 324.697, 443.863 325.602, 441.250 326.540 C 414.812 336.031, 394.544 345.170, 395.275 347.271 C 395.905 349.082, 398.406 348.609, 409.500 344.578 C 431.865 336.451, 456.030 332.215, 485.314 331.287 C 504.068 330.692, 504.140 330.681, 508.126 327.793 C 515.209 322.663, 513.466 320.838, 487 305.657 C 463.050 291.921, 447.427 285.324, 426.333 280.044 C 417.015 277.712, 417.546 277.787, 416.667 278.667 M 435.012 289.281 C 453.333 299.752, 473 312.886, 473 314.649 C 473 316.485, 471.505 316.384, 455.969 313.498 C 442.686 311.030, 433.907 309.491, 415.750 306.451 C 399.106 303.664, 400.290 303.754, 402.534 305.450 C 403.615 306.268, 404.882 306.951, 405.350 306.968 C 405.817 306.986, 411.217 308.978, 417.350 311.396 C 423.482 313.814, 431.425 316.937, 435 318.335 C 448.887 323.768, 449.263 323.978, 447.960 325.548 C 447.297 326.347, 446.140 327, 445.388 327 C 441.515 327, 401 343.522, 401 345.101 C 401 345.447, 404.938 344.423, 409.750 342.826 C 434.199 334.714, 454.843 331.099, 481 330.350 C 497.620 329.873, 501.130 329.497, 504.767 327.798 C 507.114 326.702, 509.486 324.961, 510.038 323.929 C 510.888 322.340, 510.387 321.644, 506.771 319.391 C 504.422 317.928, 500.565 315.441, 498.200 313.865 C 495.835 312.289, 493.705 311, 493.467 311 C 493.230 311, 490.215 309.287, 486.768 307.194 C 470.960 297.594, 447.492 287.083, 432.733 282.993 C 419.220 279.249, 419.680 280.518, 435.012 289.281 M 329.500 306.599 C 301.142 310.577, 281.344 314.312, 271 317.636 C 256.364 322.339, 240 329.377, 240 330.968 C 240 331.909, 243.085 332.516, 245.470 332.045 C 246.003 331.940, 251.853 331.205, 258.470 330.413 C 265.086 329.621, 278.067 327.945, 287.315 326.688 C 296.564 325.431, 304.336 324.735, 304.587 325.140 C 305.064 325.912, 302.389 327.454, 277 341.044 C 237.688 362.086, 238.604 361.550, 239.512 363.019 C 240.082 363.941, 240.994 363.754, 255 359.838 C 287.755 350.680, 313.899 339.164, 331.631 326.085 C 339.612 320.197, 342.370 316.142, 342.443 310.185 C 342.511 304.639, 342.833 304.728, 329.500 306.599 M 322 309.047 C 315.675 310.071, 305.775 311.672, 300 312.606 C 282.008 315.514, 266.779 319.927, 248.781 327.447 C 243.150 329.800, 242.791 331.451, 248.097 330.592 C 266.046 327.686, 305.554 323.154, 306.314 323.914 C 307.772 325.372, 306.347 326.714, 299.206 330.607 C 295.518 332.617, 288.225 336.634, 283 339.532 C 277.775 342.431, 267.650 347.838, 260.500 351.549 C 247.063 358.522, 245.289 359.622, 246.128 360.461 C 246.848 361.181, 274.675 352.478, 287.507 347.518 C 307.944 339.620, 327.329 328.839, 335.764 320.680 C 339.518 317.050, 341.977 312.143, 341.994 308.250 C 342.002 306.535, 336.053 306.773, 322 309.047 M 602.604 314.832 C 602.090 315.663, 602.886 318.007, 613.529 347 C 621.999 370.072, 623.961 376, 623.127 376 C 622.713 376, 617.452 370.267, 611.437 363.261 C 582.957 330.086, 572.714 318.886, 571.744 319.856 C 571.080 320.520, 571.924 322.969, 574.268 327.177 C 576.205 330.655, 579.031 335.750, 580.550 338.500 C 582.068 341.250, 586.200 348.603, 589.731 354.840 C 593.263 361.078, 595.927 366.406, 595.651 366.682 C 595.375 366.958, 583.978 363.783, 570.325 359.627 C 540.409 350.521, 540.413 350.522, 539.491 352.015 C 538.436 353.721, 540.599 355.282, 548.500 358.518 C 566.931 366.065, 611.307 388.876, 615 392.701 C 616.728 394.491, 617.324 394.573, 600 390.642 C 536.538 376.241, 542 377.308, 542 379.312 C 542 381.868, 571.944 398.813, 587 404.777 C 605.597 412.144, 625.791 415.938, 636.486 414.076 C 643.932 412.779, 649.880 410.475, 650.596 408.610 C 650.876 407.881, 649.993 404.407, 648.634 400.892 C 647.275 397.376, 643.388 387.324, 639.997 378.554 C 629.567 351.577, 622.240 337.549, 609.807 320.750 C 604.939 314.173, 603.660 313.123, 602.604 314.832 M 605 318.867 C 605 319.479, 607.217 325.947, 609.927 333.240 C 625.168 374.254, 626.334 378, 623.867 378 C 622.585 378, 615.653 370.559, 601.975 354.500 C 596.822 348.450, 590.557 341.250, 588.052 338.500 C 585.548 335.750, 581.711 331.327, 579.526 328.671 C 577.341 326.015, 575.414 324.259, 575.244 324.768 C 575.074 325.278, 578.100 331.239, 581.967 338.014 C 585.835 344.788, 589 350.469, 589 350.637 C 589 350.805, 591.025 354.368, 593.500 358.554 C 598.064 366.274, 598.936 369, 596.840 369 C 595.590 369, 564.153 359.441, 552.241 355.439 C 545.087 353.035, 539.683 352.214, 541.550 353.814 C 542.073 354.262, 547.225 356.597, 553 359.004 C 566.863 364.782, 598.097 380.556, 609.939 387.759 C 620.557 394.217, 622.587 396.684, 616.378 395.583 C 611.788 394.769, 567.005 384.743, 555.468 381.947 C 551.050 380.876, 547.112 380, 546.718 380 C 542.721 380, 557.275 389.195, 574.500 397.553 C 595.865 407.919, 617.796 413.657, 632.500 412.727 C 641.280 412.171, 649 409.626, 649 407.287 C 649 404.588, 632.947 363.751, 627.446 352.455 C 619.874 336.906, 605 314.650, 605 318.867 M 750 367.191 C 773.673 388.972, 798.998 416.402, 797.146 418.254 C 796.434 418.966, 795.660 418.987, 794.792 418.316 C 794.082 417.766, 791.700 416.612, 789.500 415.750 C 787.300 414.889, 781.900 412.522, 777.500 410.490 C 744.493 395.249, 723.802 386, 722.713 386 C 720.756 386, 724.967 389.555, 738 398.908 C 744.875 403.841, 750.950 408.266, 751.500 408.741 C 752.050 409.215, 755.875 411.972, 760 414.867 C 764.125 417.762, 767.500 420.664, 767.500 421.315 C 767.500 422.089, 764.377 422.741, 758.500 423.195 C 729.506 425.435, 704.489 429.830, 708.086 432.053 C 708.672 432.415, 715.530 432.803, 723.326 432.914 C 731.122 433.026, 745.375 434.050, 755 435.190 C 780.101 438.163, 781.504 438.392, 781.467 439.500 C 781.407 441.302, 764.325 446.403, 741 451.583 C 731.925 453.599, 724.050 455.698, 723.500 456.248 C 722.833 456.914, 730.002 457.052, 745 456.660 C 775.281 455.870, 798.054 452.401, 819.498 445.314 C 829.094 442.143, 837.592 438.469, 838.415 437.137 C 838.745 436.604, 836.585 434.443, 833.616 432.334 C 830.647 430.225, 824.730 424.508, 820.467 419.629 C 802.616 399.201, 785.937 385.801, 755.767 367.652 C 746.222 361.910, 744.074 361.738, 750 367.191 M 200.534 465.945 C 199.414 467.757, 200.959 468.970, 205.264 469.658 C 207.545 470.023, 210.445 471.354, 211.706 472.615 L 214 474.909 214 579.263 C 214 667.768, 213.785 683.913, 212.582 685.559 C 211.802 686.626, 208.764 688.196, 205.832 689.046 C 202.542 689.999, 200.500 691.148, 200.500 692.046 C 200.500 694.273, 257.141 694.740, 258.978 692.527 C 260.379 690.838, 260.372 690.834, 253.304 689.025 C 250.884 688.406, 248.238 686.846, 247.054 685.341 C 245.059 682.806, 245 681.566, 245 642.469 L 245 602.207 276.750 601.726 C 310.495 601.214, 314.535 600.724, 327.500 595.573 C 344.646 588.761, 356.378 578.134, 364.026 562.485 C 373.224 543.666, 373.072 523.938, 363.580 504.577 C 356.357 489.845, 346.011 480.033, 329.808 472.547 C 314.968 465.690, 315.298 465.723, 255.343 465.285 C 218.031 465.013, 200.983 465.218, 200.534 465.945 M 517.647 466.477 C 517.006 468.147, 520.353 470, 524.009 470 C 525.043 470, 527.151 471.086, 528.694 472.413 L 531.500 474.827 531.500 579.308 C 531.500 680.723, 531.444 683.852, 529.591 685.899 C 528.541 687.059, 525.841 688.479, 523.591 689.054 C 516.643 690.829, 516.623 690.841, 518.022 692.527 C 519.846 694.724, 576.500 694.275, 576.500 692.064 C 576.500 691.250, 574.982 690.259, 573 689.778 C 571.075 689.312, 568.418 688.383, 567.095 687.715 C 562.249 685.267, 562 682.981, 562 641.032 L 562 602 589.250 601.994 C 632.812 601.985, 647.070 598.519, 665.253 583.522 C 688.032 564.732, 694.806 530.553, 680.986 504.131 C 671.412 485.827, 655.990 473.799, 634.450 467.836 C 626.800 465.718, 624.460 465.621, 572.378 465.263 C 523.658 464.928, 518.195 465.049, 517.647 466.477 M 204.986 467.013 C 203.241 467.417, 203.750 467.786, 207.403 468.763 C 210.852 469.685, 212.534 470.827, 214.011 473.250 C 215.952 476.434, 215.993 478.581, 215.993 579.500 C 215.993 680.192, 215.948 682.572, 214.024 685.729 C 212.553 688.141, 210.914 689.245, 207.540 690.094 C 205.057 690.720, 203.253 691.600, 203.531 692.051 C 204.226 693.175, 256 693.254, 256 692.131 C 256 691.639, 253.947 690.720, 251.438 690.089 C 247.468 689.089, 246.627 688.392, 244.960 684.720 C 243.178 680.796, 243.042 677.765, 243.022 641.450 C 243.006 612.386, 243.307 602.093, 244.200 601.200 C 245.079 600.321, 253.436 599.994, 275.450 599.978 C 301.669 599.959, 306.643 599.704, 314.461 597.976 C 336.988 592.996, 354.060 580.211, 362.919 561.687 C 367.523 552.060, 369.308 544.324, 369.308 534 C 369.308 523.700, 367.525 515.944, 362.962 506.401 C 353.929 487.510, 338.056 475.107, 314.908 468.851 C 306.705 466.634, 305.287 466.577, 256.848 466.539 C 229.539 466.518, 206.201 466.731, 204.986 467.013 M 553 466.955 C 523.072 467.457, 520.880 467.610, 525.299 468.894 C 528.776 469.903, 530.497 471.060, 531.549 473.094 C 532.790 475.494, 533 490.908, 533 579.500 C 533 695.907, 533.549 687.746, 525.567 689.981 C 523.075 690.679, 521.280 691.644, 521.577 692.125 C 522.237 693.192, 569.714 693.167, 572.446 692.098 C 574.003 691.488, 573.448 691.098, 569.668 690.147 C 566.080 689.243, 564.471 688.181, 562.976 685.729 C 561.103 682.657, 561.007 680.520, 561.004 641.857 C 561 605.716, 561.175 601.147, 562.582 600.607 C 563.452 600.273, 577.372 600, 593.516 600 C 624.742 600, 631.712 599.267, 643 594.793 C 667.116 585.236, 681.721 568.153, 685.939 544.566 C 691.169 515.323, 673.835 484.890, 645.230 473.095 C 629.049 466.422, 620.133 465.829, 553 466.955 M 282 469.656 C 271.883 470.346, 259.128 472.347, 253.192 474.174 C 242.020 477.614, 243 471.582, 243 536.918 C 243 568.223, 243.273 594.548, 243.607 595.418 C 244.139 596.805, 247.459 597, 270.569 597 C 295.757 597, 297.265 596.892, 304.624 594.555 C 323.544 588.547, 336.307 572.761, 341.158 549.365 C 347.791 517.385, 334.217 484.687, 309.639 473.435 C 304.771 471.206, 293.003 468.846, 288.500 469.195 C 287.400 469.280, 284.475 469.488, 282 469.656 M 598.500 469.669 C 590.306 470.136, 573.377 472.956, 568.555 474.657 C 560.351 477.552, 561 472.094, 561 538.155 L 561 597 586.364 597 C 600.313 597, 614.149 596.541, 617.109 595.979 C 625.260 594.434, 633.875 589.939, 640.520 583.764 C 647.604 577.182, 652.245 569.825, 656.352 558.665 C 659.210 550.900, 659.361 549.717, 659.429 534.500 C 659.492 520.379, 659.224 517.622, 657.153 511.025 C 649.137 485.498, 633.086 471.139, 611 469.740 C 607.425 469.513, 601.800 469.482, 598.500 469.669 M 265.567 473.027 C 251.974 475.316, 246.176 477.424, 245.472 480.333 C 245.183 481.525, 245.071 507.925, 245.224 539 L 245.500 595.500 272 595.500 C 295.359 595.500, 299.152 595.276, 304 593.613 C 321.607 587.573, 334.713 572.035, 339.520 551.500 C 341.463 543.200, 341.742 528.082, 340.121 519 C 336.836 500.603, 325.138 482.694, 312.052 476.030 C 301.409 470.609, 285.886 469.607, 265.567 473.027 M 592 471.479 C 591.175 471.666, 587.125 472.349, 583 472.997 C 573.063 474.556, 566.083 476.615, 563.834 478.650 C 562.096 480.223, 562 483.331, 562 538.250 L 562 596.189 589.250 595.763 C 614.118 595.373, 617.017 595.146, 622.419 593.164 C 639.131 587.030, 650.576 573.913, 656.185 554.465 C 659.458 543.120, 659.422 523.982, 656.107 512.500 C 650.914 494.515, 640.925 481.681, 627 475.105 C 619.728 471.670, 619.105 471.556, 606.500 471.351 C 599.350 471.234, 592.825 471.292, 592 471.479 M 437.360 527.413 C 417.151 531.260, 403.447 539.146, 392.028 553.500 C 375.237 574.606, 370.078 606.341, 378.637 635.875 C 387.473 666.368, 409.172 687.894, 437.755 694.523 C 441.359 695.359, 448.981 695.999, 455.312 695.999 C 482.342 695.995, 499.213 688.907, 509.967 673.036 C 517.540 661.861, 519.940 654.978, 516.250 655.020 C 515.079 655.033, 513.449 657.268, 511.325 661.770 C 507.840 669.158, 500.274 677.583, 493.624 681.480 C 480.953 688.906, 455.915 688.803, 443 681.272 C 436.981 677.762, 427.241 667.886, 422.514 660.500 C 415.759 649.945, 408.003 630.422, 409.563 627.898 C 410.624 626.182, 508.530 578, 510.957 578 C 511.468 578, 512.535 577.074, 513.329 575.941 C 514.593 574.136, 514.558 573.061, 513.040 567.191 C 510.574 557.659, 506.936 551.110, 500.291 544.243 C 493.583 537.312, 484.907 532.004, 475.282 528.943 C 466.628 526.192, 447.772 525.431, 437.360 527.413 M 755.360 527.476 C 727.825 532.474, 707.782 549.234, 698.528 575 C 688.293 603.496, 692.490 638.051, 709.095 662 C 717.459 674.064, 728.160 683.330, 740.290 689.015 C 751.147 694.102, 760.391 696, 774.315 696 C 791.901 696, 805.897 692.607, 815.462 686.026 C 824.669 679.692, 836 664.014, 836 657.610 C 836 652.979, 833.225 654.744, 830.052 661.391 C 824.215 673.621, 813.787 682.321, 801.076 685.565 C 796.410 686.756, 791.621 687.101, 783.576 686.825 C 771.092 686.396, 765.051 684.299, 755.474 677.068 C 745.482 669.524, 734.109 651.466, 729.121 635.225 C 727.377 629.545, 727.342 628.801, 728.750 627.393 C 730.857 625.286, 823.850 579.452, 829.938 577.520 C 832.862 576.592, 833.269 573.825, 831.489 566.958 C 829.086 557.686, 825.262 551.264, 817.500 543.473 C 802.716 528.631, 780.503 522.913, 755.360 527.476 M 444 527.611 C 429.081 530.416, 421.638 532.702, 414 536.824 C 391.048 549.211, 377.506 573.195, 376.261 603.663 C 375.697 617.463, 376.737 625.041, 381.031 638.424 C 388.728 662.416, 405.119 680.721, 427.115 689.890 C 436.072 693.623, 447.549 695.299, 460 694.692 C 484.766 693.485, 499.419 686.546, 509.715 671.153 C 513.826 665.007, 517.303 657.970, 516.584 657.251 C 515.799 656.466, 514 658.059, 514 659.540 C 514 664.560, 500.026 679.906, 491.885 683.826 C 477.764 690.625, 457.803 690.494, 444.026 683.513 C 434.495 678.684, 422.774 665.558, 416.099 652.239 C 412.275 644.611, 406.991 629.186, 407.631 627.520 C 408.039 626.457, 480.519 590.125, 504.250 579.088 C 514.152 574.482, 514.075 574.645, 510.919 564.915 C 505.333 547.700, 492.831 536.039, 473.500 530.013 C 466.662 527.882, 449.843 526.512, 444 527.611 M 761.500 527.646 C 741.321 530.890, 727.385 537.689, 715.349 550.162 C 708.642 557.113, 704.055 564.537, 700.105 574.837 C 688.007 606.384, 695.432 646.855, 717.599 670.193 C 733.720 687.165, 751.654 695.002, 774.360 694.999 C 794.297 694.995, 810.066 689.894, 820.296 680.137 C 827.791 672.989, 837.383 657, 834.176 657 C 833.648 657, 832.925 658.162, 832.569 659.583 C 830.780 666.707, 819.457 679.215, 810.844 683.579 C 805.003 686.539, 793.326 689, 785.122 689 C 778.135 689, 769.309 686.785, 762.005 683.198 C 754.628 679.576, 743.637 668.301, 737.860 658.429 C 732.620 649.474, 725.732 631.888, 726.194 628.645 C 726.440 626.920, 732.380 623.564, 756.537 611.500 C 773.058 603.250, 796.570 591.682, 808.787 585.792 C 833.420 573.918, 832.401 574.890, 829.649 565.909 C 824.230 548.220, 809.707 534.757, 790.433 529.557 C 784.387 527.926, 766.931 526.772, 761.500 527.646 M 438.223 531.485 C 416.693 537.555, 403.738 561.952, 403.698 596.500 C 403.683 609.690, 405.043 621.443, 406.785 623.185 C 407.604 624.004, 493.987 581.018, 493.995 579.788 C 493.998 579.396, 474.613 588.771, 450.918 600.622 C 427.222 612.473, 407.686 622.018, 407.504 621.834 C 406.622 620.944, 405 604.855, 405 597 C 405 575.638, 409.677 559.157, 419.554 545.715 C 429.491 532.192, 450.409 527.583, 466.382 535.398 C 477.603 540.888, 488.004 555.034, 491.981 570.216 C 493.031 574.222, 493.915 576.344, 493.945 574.932 C 494.119 566.817, 486.191 550.408, 478.269 542.486 C 470.409 534.627, 462.586 531.052, 451.960 530.465 C 446.209 530.147, 441.810 530.474, 438.223 531.485 M 758.223 531.062 C 743.250 534.013, 730.418 549.029, 724.948 570 C 721.165 584.505, 721.318 620.725, 725.173 623.107 C 726.714 624.059, 811.913 581.391, 812.732 579.257 C 813.785 576.513, 810.974 565.790, 806.937 557.149 C 797.448 536.839, 779.010 526.966, 758.223 531.062 M 759.436 532.384 C 739.005 536.454, 725.216 558.684, 723.389 590.500 C 722.762 601.422, 724.263 619.662, 725.926 621.326 C 726.633 622.033, 809.089 581.311, 811.175 579.225 C 812.516 577.884, 809.165 565.052, 805.466 557.363 C 796.386 538.484, 778.241 528.637, 759.436 532.384 M 270.326 737.072 C 262.295 738.607, 257.154 742.701, 252.840 751 C 249.703 757.036, 249.046 769.772, 251.486 777.284 C 254.940 787.921, 262.190 793.924, 272.591 794.759 C 285.481 795.794, 292.982 791.844, 298.181 781.283 C 301.044 775.467, 301.416 773.747, 301.454 766.112 C 301.501 756.887, 300.464 753.206, 295.918 746.462 C 291.019 739.195, 280.130 735.199, 270.326 737.072 M 429.500 736.486 C 428.950 736.678, 426.803 737.120, 424.729 737.467 C 416.323 738.874, 410.630 748.200, 412.941 756.780 C 414.644 763.104, 417.028 764.550, 435 770.159 C 443.532 772.822, 445.706 775.425, 444.549 781.593 C 443.006 789.816, 428.529 792.104, 419.152 785.605 C 414.891 782.652, 411.999 782.956, 412.002 786.357 C 412.003 787.824, 413.498 789.444, 416.740 791.493 C 420.653 793.965, 422.763 794.550, 428.878 794.859 C 438.151 795.327, 442.629 794.010, 446.964 789.537 C 449.895 786.513, 450.421 785.217, 450.727 780.261 C 450.943 776.774, 450.568 773.525, 449.777 772.030 C 448.069 768.800, 442.730 765.259, 437.599 763.951 C 427.502 761.379, 422.973 759.600, 420.898 757.392 C 416.171 752.360, 419.429 745.039, 427.344 742.907 C 432.539 741.508, 436.781 742.383, 442.090 745.949 C 445.371 748.152, 446.842 748.620, 448.205 747.890 C 449.192 747.362, 450 746.349, 450 745.639 C 450 743.998, 446.378 740.669, 442.500 738.747 C 439.477 737.248, 431.354 735.835, 429.500 736.486 M 490.275 736.973 C 485.754 738.044, 482.078 740.666, 480.955 743.617 C 479.246 748.114, 479.849 753.498, 482.500 757.405 C 483.875 759.431, 484.973 761.406, 484.939 761.794 C 484.905 762.182, 482.993 763.861, 480.689 765.524 C 473.444 770.755, 471.633 781.013, 476.745 787.861 C 480.629 793.062, 483.671 794.470, 491.826 794.841 C 499.267 795.178, 499.693 795.072, 504.919 791.554 L 510.321 787.919 513.411 790.815 C 516.949 794.132, 519.353 795.186, 521.500 794.362 C 523.715 793.512, 523.434 792.854, 518.533 787.437 C 516.077 784.722, 514.052 781.949, 514.033 781.276 C 514.015 780.603, 515.586 776.794, 517.524 772.811 C 521.295 765.064, 521.352 762.669, 517.754 763.180 C 516.069 763.419, 514.658 765.263, 512.160 770.492 L 508.821 777.484 502.910 771.234 C 499.660 767.797, 497 764.614, 497 764.162 C 497 763.709, 498.238 762.699, 499.750 761.919 C 505.780 758.808, 508 755.187, 508 748.466 C 508 744.493, 507.495 743.295, 504.600 740.400 C 502.534 738.334, 500.212 737, 498.682 737 C 497.297 737, 495.564 736.822, 494.832 736.604 C 494.099 736.387, 492.049 736.552, 490.275 736.973 M 830.479 737.364 C 824.422 739.307, 821.472 741.627, 819.502 745.995 C 817.087 751.352, 818.027 758.375, 821.669 762.176 C 824.122 764.737, 832.086 767.984, 839.540 769.463 C 847.692 771.081, 851.965 776.546, 849.921 782.741 C 847.613 789.732, 835.021 791.461, 825.510 786.093 C 821.049 783.575, 819.959 783.310, 818.488 784.385 C 815.803 786.348, 818.042 789.384, 824.509 792.548 C 829.515 794.997, 830.823 795.208, 838.538 794.803 C 847.601 794.327, 850.342 793.101, 854.352 787.730 C 856.809 784.440, 857.619 775.511, 855.778 772.030 C 854.069 768.800, 848.730 765.259, 843.599 763.951 C 829.262 760.299, 825.377 758.136, 824.403 753.265 C 823.185 747.177, 832.351 740.905, 840.288 742.394 C 842.203 742.754, 845.714 744.353, 848.090 745.949 C 851.371 748.152, 852.842 748.620, 854.205 747.890 C 856.873 746.463, 856.393 744.401, 852.746 741.620 C 846.622 736.949, 837.316 735.170, 830.479 737.364 M 202.152 737.885 C 201.410 738.355, 200.965 739.586, 201.162 740.620 C 201.475 742.259, 202.737 742.564, 211.010 743 L 220.500 743.500 220.767 768.142 C 221.046 793.809, 221.416 795.929, 225.356 794.417 C 226.767 793.875, 226.999 790.687, 227.233 768.650 L 227.500 743.500 237.156 743.215 C 245.129 742.980, 246.926 742.635, 247.461 741.241 C 248.861 737.592, 245.577 736.999, 224.059 737.015 C 212.751 737.024, 202.893 737.415, 202.152 737.885 M 311.248 737.826 C 310.323 738.413, 309.930 744.102, 309.748 759.561 C 309.463 783.604, 310.063 785.946, 317.920 791.496 C 321.585 794.085, 323.222 794.541, 329.960 794.847 C 342.546 795.418, 350.114 790.684, 352.896 780.500 C 353.504 778.276, 353.991 768.193, 353.994 757.785 C 353.999 740.769, 353.836 738.983, 352.196 738.105 C 348.593 736.177, 348.201 737.964, 347.833 758 C 347.433 779.754, 346.499 783.505, 340.580 787.114 C 336.306 789.721, 326.631 789.682, 322.299 787.040 C 316.501 783.505, 316 781.297, 316 759.250 C 316 737.887, 315.401 735.188, 311.248 737.826 M 367.250 737.597 C 365.678 738.313, 365.415 793.521, 366.979 794.487 C 367.518 794.820, 368.853 794.614, 369.947 794.028 C 371.721 793.079, 371.965 791.757, 372.217 781.732 L 372.500 770.500 377.497 770.185 C 387.659 769.545, 387.964 769.765, 394.039 782.099 C 399.499 793.185, 401.475 795.523, 404.428 794.389 C 406.788 793.484, 406.383 791.561, 402.059 783.159 C 399.891 778.946, 397.430 774.088, 396.591 772.362 L 395.064 769.223 398.973 766.636 C 402.047 764.602, 403.234 762.923, 404.530 758.775 C 406.084 753.797, 406.074 753.190, 404.339 748.007 C 402.764 743.302, 401.866 742.166, 398.079 740.087 C 394.182 737.949, 392.165 737.623, 381.079 737.344 C 374.160 737.170, 367.938 737.284, 367.250 737.597 M 540.152 737.885 C 539.410 738.355, 538.965 739.586, 539.163 740.620 C 539.481 742.282, 540.650 742.533, 549.262 742.786 L 559 743.072 559.081 765.286 C 559.126 777.504, 559.253 788.730, 559.363 790.232 C 559.614 793.635, 561.154 795.262, 563.333 794.426 C 565.292 793.674, 565.411 792.260, 565.046 774 C 564.898 766.575, 565.104 756.578, 565.504 751.785 L 566.231 743.070 575.865 742.785 C 584.813 742.520, 585.522 742.349, 585.802 740.380 C 586.017 738.875, 585.438 738.082, 583.802 737.644 C 580.280 736.701, 541.684 736.914, 540.152 737.885 M 592.250 738.102 C 591.313 739.075, 591 746.112, 591 766.165 C 591 791.585, 591.097 792.982, 592.931 793.963 C 594.390 794.744, 595.248 794.609, 596.447 793.410 C 597.709 792.148, 597.993 789.835, 597.836 782.108 C 597.728 776.765, 597.972 771.855, 598.378 771.197 C 598.835 770.458, 601.715 770, 605.904 770 C 614.084 770, 613.994 769.918, 620.836 783.622 C 625.971 793.906, 628.231 796.197, 630.755 793.674 C 631.954 792.474, 631.346 790.663, 626.505 781.009 L 620.855 769.744 624.448 766.782 C 629.207 762.860, 631 759.141, 631 753.198 C 631 747.391, 628.221 742.617, 623.100 739.627 C 620.318 738.002, 617.348 737.569, 606.604 737.224 C 596.721 736.907, 593.193 737.123, 592.250 738.102 M 657.253 737.822 C 656.568 738.258, 651.069 750.736, 645.034 765.552 C 635.321 789.400, 634.232 792.661, 635.550 793.978 C 637.903 796.331, 640.162 794.138, 643.263 786.489 C 644.782 782.741, 646.525 779.073, 647.135 778.337 C 647.947 777.358, 651.424 777, 660.102 777 L 671.959 777 673.844 780.750 C 674.881 782.813, 676.257 786.133, 676.902 788.129 C 678.329 792.545, 681.128 795.272, 683.355 794.417 C 685.547 793.576, 685.428 791.157, 682.911 785.333 C 681.763 782.675, 677.008 771.058, 672.346 759.519 C 667.684 747.979, 663.336 738.198, 662.685 737.784 C 661.149 736.808, 658.825 736.824, 657.253 737.822 M 683.250 737.662 C 680.896 738.612, 680.208 736.550, 697.839 781.341 C 704.360 797.907, 707.607 798.883, 712.553 785.765 C 714.059 781.769, 718.601 770.021, 722.646 759.657 C 726.691 749.294, 730 740.229, 730 739.514 C 730 737.735, 727.222 736.811, 725.173 737.907 C 724.172 738.443, 720.111 747.850, 715.137 761.154 C 710.542 773.444, 706.613 783.682, 706.404 783.904 C 705.823 784.523, 701.945 775.199, 695.005 756.500 C 689.436 741.492, 687.033 736.800, 685.059 737.079 C 684.751 737.122, 683.938 737.385, 683.250 737.662 M 737.250 737.662 C 736.292 738.049, 736 744.664, 736 765.976 C 736 787.331, 736.290 793.884, 737.250 794.210 C 739.396 794.937, 767.781 795.204, 769.945 794.517 C 771.268 794.097, 772 793.008, 772 791.459 L 772 789.053 757.250 788.777 L 742.500 788.500 742.214 778.750 L 741.928 769 753.714 768.985 C 766.197 768.968, 768.415 768.402, 767.837 765.380 C 767.514 763.692, 766.199 763.449, 754.989 763 L 742.500 762.500 742.500 753 L 742.500 743.500 756.988 743 C 770.157 742.546, 771.509 742.329, 771.837 740.620 C 772.035 739.586, 771.590 738.355, 770.848 737.885 C 769.434 736.989, 739.413 736.790, 737.250 737.662 M 781.250 737.662 C 780.292 738.049, 780 744.664, 780 765.976 C 780 787.319, 780.291 793.890, 781.250 794.233 C 783.619 795.079, 814.348 794.052, 815.306 793.094 C 815.834 792.566, 816 791.442, 815.675 790.595 C 815.188 789.327, 812.562 789.006, 800.792 788.778 L 786.500 788.500 786.232 763.548 C 785.947 736.998, 785.727 735.856, 781.250 737.662 M 267 739.314 C 265.075 739.924, 261.453 742.466, 258.952 744.962 C 255.369 748.538, 254.017 750.880, 252.581 755.997 C 245.889 779.847, 263.072 799.647, 284.212 792.444 C 296.547 788.240, 303.026 771.904, 298.883 755.451 C 297.492 749.927, 291.012 742.365, 285.539 739.878 C 281.009 737.821, 272.525 737.562, 267 739.314 M 422.020 739.752 C 415.332 743.112, 412.253 751.276, 414.975 758.434 C 416.112 761.426, 420.830 764.574, 426.500 766.125 C 443.380 770.744, 446 772.392, 446 778.389 C 446 783.463, 444.462 786.712, 441.293 788.332 C 434.285 791.914, 425.578 791.560, 419.519 787.448 C 413.272 783.209, 410.525 784.740, 416.045 789.385 C 420.152 792.840, 426.216 794.325, 433.773 793.725 C 444.223 792.895, 450 787.296, 450 777.999 C 450 771.868, 445.640 767.836, 435.935 764.990 C 422.897 761.167, 420.441 760.017, 418.577 756.861 C 415.215 751.170, 419.360 743.203, 426.631 741.378 C 431.377 740.187, 438.759 741.578, 442.391 744.349 C 446.236 747.282, 448 747.692, 448 745.655 C 448 739.667, 430.227 735.628, 422.020 739.752 M 487.259 739.432 C 480.614 742.434, 479.346 751.014, 484.512 758.016 C 485.880 759.871, 487 761.691, 487 762.061 C 487 762.431, 485.209 763.920, 483.020 765.368 C 470.229 773.833, 474.096 791.583, 489.174 793.620 C 495.929 794.532, 500.330 793.394, 505.598 789.374 L 510.241 785.829 513.913 789.415 C 517.207 792.632, 521 794.167, 521 792.284 C 521 791.891, 518.883 789.419, 516.296 786.793 L 511.591 782.017 515.434 774.136 C 517.547 769.802, 518.958 765.741, 518.569 765.111 C 517.420 763.253, 516.127 764.765, 513.039 771.573 C 511.372 775.251, 509.495 778, 508.651 778 C 507.233 778, 495 765.455, 495 764 C 495 763.610, 497.069 761.987, 499.597 760.395 C 507.531 755.399, 509.420 747.740, 504.168 741.862 C 501.770 739.178, 500.506 738.637, 495.918 738.330 C 492.565 738.106, 489.265 738.525, 487.259 739.432 M 828.450 739.344 C 826.773 740.109, 824.186 742.179, 822.700 743.944 C 820.503 746.555, 820 748.150, 820 752.500 C 820 761.373, 822.632 763.406, 840.782 768.554 C 848.673 770.792, 852 773.908, 852 779.060 C 852 789.729, 836.260 794.608, 824.926 787.453 C 820.468 784.639, 819 784.393, 819 786.458 C 819 787.260, 821.138 789.172, 823.750 790.708 C 827.961 793.183, 829.482 793.500, 837.157 793.500 C 845.337 793.500, 846.026 793.329, 849.657 790.410 C 857.372 784.206, 857.644 773.405, 850.208 768.553 C 848.168 767.222, 843.709 765.422, 840.298 764.552 C 831.564 762.324, 825.322 759.470, 824.070 757.131 C 821.349 752.046, 823.933 745.209, 829.590 742.524 C 835.008 739.953, 843.713 740.781, 848.336 744.307 C 852.310 747.338, 854 747.698, 854 745.514 C 854 744.697, 852.187 742.829, 849.971 741.362 C 845.063 738.114, 833.522 737.032, 828.450 739.344 M 202.694 739.639 C 201.026 741.307, 203.889 742, 212.452 742 C 220.041 742, 221.900 742.296, 222.393 743.582 C 222.727 744.452, 223 755.964, 223 769.165 C 223 787.921, 223.273 793.076, 224.250 792.751 C 225.187 792.439, 225.625 786.100, 226 767.418 L 226.500 742.500 235.920 742 C 242.193 741.667, 245.479 741.082, 245.754 740.250 C 246.075 739.276, 241.437 739, 224.750 739 C 212.971 739, 203.046 739.288, 202.694 739.639 M 311 759.184 C 311 777.709, 311.174 779.729, 313.121 783.750 C 315.983 789.661, 321.256 793.033, 328.683 793.700 C 339.280 794.652, 346.658 791.166, 350.104 783.579 C 351.709 780.044, 351.959 776.797, 351.978 759.250 C 351.997 741.907, 351.785 739, 350.500 739 C 349.219 739, 348.997 741.815, 348.978 758.250 C 348.953 779.845, 348.061 783.684, 342.074 787.948 C 337.234 791.394, 328.732 791.784, 323.023 788.823 C 315.180 784.754, 314.550 782.649, 314.176 759.250 C 313.909 742.533, 313.604 739, 312.426 739 C 311.238 739, 311 742.373, 311 759.184 M 367 766 C 367 789.074, 367.213 793, 368.468 793 C 369.660 793, 369.990 790.787, 370.218 781.250 L 370.500 769.500 379.724 769.213 L 388.947 768.926 394.981 780.963 C 398.646 788.273, 401.601 793, 402.508 793 C 404.813 793, 404.379 791.494, 399 780.807 C 396.250 775.344, 394 770.285, 394 769.566 C 394 768.846, 395.601 767.187, 397.558 765.879 C 406.356 759.997, 406.088 746.228, 397.078 741.164 C 393.675 739.251, 391.706 739, 380.114 739 L 367 739 367 766 M 540.496 740.007 C 539.559 741.522, 541.620 741.939, 551.500 742.232 L 560.500 742.500 560.767 767.828 C 560.974 787.360, 561.317 793.061, 562.267 792.745 C 563.182 792.441, 563.629 785.908, 564 767.418 L 564.500 742.500 573.920 742 C 580.193 741.667, 583.479 741.082, 583.754 740.250 C 584.281 738.653, 541.481 738.412, 540.496 740.007 M 592.625 741.750 C 591.932 745.322, 591.915 788.962, 592.606 791.250 C 592.897 792.212, 593.765 793, 594.536 793 C 595.641 793, 595.996 790.524, 596.218 781.250 L 596.500 769.500 605 769.245 C 609.675 769.105, 614.007 769.330, 614.626 769.745 C 615.245 770.160, 618.287 775.563, 621.384 781.750 C 624.783 788.538, 627.608 793, 628.508 793 C 630.789 793, 630.424 791.812, 624.537 780.074 L 619.074 769.181 622.622 766.475 C 630.088 760.780, 632.143 752.503, 627.730 745.898 C 623.889 740.148, 620.255 739.003, 605.829 739.002 L 593.159 739 592.625 741.750 M 656.182 741.750 C 655.624 743.263, 650.855 755.069, 645.584 767.987 C 640.313 780.904, 636 791.817, 636 792.237 C 636 792.656, 636.700 793, 637.556 793 C 638.465 793, 639.946 791.024, 641.116 788.250 C 642.217 785.638, 643.835 781.813, 644.711 779.750 L 646.304 776 659.529 776 C 668.958 776, 673.056 776.362, 673.803 777.262 C 674.379 777.956, 675.837 781.219, 677.043 784.512 C 679.493 791.201, 681.501 793.934, 682.879 792.457 C 683.416 791.882, 679.546 781.023, 673.183 765.250 C 663.003 740.017, 662.488 739, 659.894 739 C 657.863 739, 656.945 739.680, 656.182 741.750 M 684 740.285 C 684 742.049, 686.602 749.122, 695.851 772.500 C 702.772 789.994, 704.037 792.500, 705.951 792.500 C 708.379 792.500, 708.330 792.605, 720.828 760.500 C 729.139 739.149, 729.043 739.500, 726.611 739.500 C 725.231 739.500, 724.180 740.983, 722.714 745 C 721.610 748.025, 718.808 755.450, 716.487 761.500 C 714.167 767.550, 711.037 775.780, 709.532 779.788 C 707.438 785.366, 706.501 786.831, 705.539 786.032 C 704.848 785.459, 700.319 774.642, 695.476 761.995 C 690.071 747.878, 686.155 739, 685.335 739 C 684.601 739, 684 739.578, 684 740.285 M 737.451 740.267 C 737.184 740.964, 737.085 753.002, 737.232 767.017 L 737.500 792.500 754.342 792.775 C 767.637 792.991, 771.094 792.781, 770.759 791.775 C 770.448 790.837, 766.479 790.427, 755.741 790.224 L 741.145 789.947 740.823 781.584 C 740.645 776.984, 740.729 771.933, 741.008 770.360 L 741.517 767.500 754.332 767.220 C 763.869 767.011, 767.043 766.627, 766.741 765.720 C 766.458 764.867, 762.567 764.416, 753.816 764.221 L 741.295 763.942 740.676 755.220 C 739.684 741.240, 738.887 742, 754.535 742 C 767.946 742, 771.449 741.536, 770.435 739.895 C 769.516 738.408, 738.028 738.763, 737.451 740.267 M 781.451 740.267 C 781.184 740.964, 781.085 753.002, 781.232 767.017 L 781.500 792.500 797.750 792.775 C 811.637 793.010, 814 792.832, 814 791.552 C 814 790.306, 811.615 790.008, 799.750 789.777 L 785.500 789.500 785.233 764.250 C 785.003 742.485, 784.757 739, 783.451 739 C 782.619 739, 781.718 739.570, 781.451 740.267 M 267.500 742.659 C 258.971 747.147, 255 754.313, 255 765.217 C 255 769.095, 255.550 774.104, 256.223 776.349 C 257.936 782.068, 264.413 788.514, 269.929 789.989 C 284.812 793.969, 296.527 783.384, 296.479 766 C 296.447 754.345, 291.739 745.878, 283.338 742.368 C 278.997 740.554, 271.228 740.697, 267.500 742.659 M 487.455 743.455 C 483.492 747.417, 484.581 754.596, 489.872 759.384 C 491.638 760.983, 492.372 761.089, 494.778 760.092 C 500.327 757.794, 503 754.337, 503 749.460 C 503 743.430, 500.546 741, 494.455 741 C 490.962 741, 489.341 741.568, 487.455 743.455 M 269.007 743.534 C 264.402 745.609, 261.282 748.613, 258.658 753.500 C 255.786 758.847, 255.646 772.698, 258.410 778 C 262.570 785.983, 267.276 789, 275.564 789 C 285.669 789, 291.968 783.464, 294.626 772.245 C 296.175 765.705, 295.173 758.264, 291.864 751.750 C 288.059 744.258, 276.569 740.128, 269.007 743.534 M 370.747 742.587 C 369.705 743.628, 369.837 763.195, 370.897 764.868 C 371.566 765.924, 374.129 766.148, 382.150 765.851 C 390.980 765.524, 393.015 765.126, 395.733 763.190 C 401.578 759.028, 401.916 750.091, 396.424 744.926 C 394.066 742.708, 392.885 742.472, 382.669 742.170 C 376.522 741.989, 371.157 742.176, 370.747 742.587 M 488.635 744.073 C 485.323 746.678, 485.201 750.516, 488.284 755.102 C 491.381 759.708, 493.950 759.856, 498.373 755.685 C 503.423 750.922, 503.399 745.826, 498.316 743.150 C 495.042 741.426, 491.579 741.756, 488.635 744.073 M 596.432 743.318 C 596.154 744.042, 596.055 749.330, 596.213 755.068 L 596.500 765.500 604.743 765.790 C 609.277 765.950, 614.813 765.589, 617.046 764.988 C 627.057 762.292, 629.655 750.652, 621.614 744.519 C 618.561 742.190, 617.505 742, 607.624 742 C 599.705 742, 596.806 742.341, 596.432 743.318 M 372.667 743.667 C 372.300 744.033, 372 748.758, 372 754.167 C 372 765.345, 370.948 764.344, 382.500 764.159 C 394.556 763.966, 397.578 762.374, 398.671 755.641 C 400.084 746.935, 394.628 743, 381.146 743 C 376.849 743, 373.033 743.300, 372.667 743.667 M 598.429 744.325 C 598.149 745.054, 598.051 749.891, 598.210 755.075 L 598.500 764.500 606 764.435 C 617.519 764.335, 620.546 763.471, 622.939 759.598 C 627.003 753.022, 624.432 746.047, 617.205 744.040 C 611.671 742.503, 599.054 742.695, 598.429 744.325 M 658.009 746.250 C 652.984 758.179, 648.156 771.443, 648.586 772.139 C 648.879 772.613, 653.831 773, 659.590 773 C 667.698 773, 670.185 772.680, 670.606 771.585 C 671.266 769.864, 661.228 744, 659.900 744 C 659.381 744, 658.531 745.013, 658.009 746.250 M 654.604 758.505 C 652.072 764.833, 650 770.233, 650 770.505 C 650 770.777, 654.275 771, 659.500 771 C 666.428 771, 669.003 770.662, 669.010 769.750 C 669.025 767.909, 660.611 747.005, 659.854 747.002 C 659.499 747.001, 657.136 752.177, 654.604 758.505 M 486.500 766.861 C 480.945 770.292, 479.500 772.733, 479.500 778.687 C 479.500 783.588, 479.837 784.465, 482.706 787.028 C 488.559 792.258, 497.447 792.181, 503.521 786.847 C 505.435 785.167, 507 783.334, 507 782.774 C 507 781.713, 491.077 764.997, 490.073 765.004 C 489.758 765.006, 488.150 765.841, 486.500 766.861 M 484.424 770.251 C 481.780 772.673, 480.732 774.577, 480.310 777.723 C 479.795 781.567, 480.060 782.260, 483.272 785.472 C 486.483 788.683, 487.311 789, 492.496 789 C 498.718 789, 503.595 786.851, 504.607 783.663 C 505.062 782.228, 503.406 779.942, 497.881 774.380 C 493.849 770.321, 489.970 767, 489.260 767 C 488.551 767, 486.374 768.463, 484.424 770.251 M 526.750 1003.732 C 529.087 1003.943, 532.913 1003.943, 535.250 1003.732 C 537.587 1003.522, 535.675 1003.349, 531 1003.349 C 526.325 1003.349, 524.413 1003.522, 526.750 1003.732" stroke="none" fill="#c4ac85" fill-rule="evenodd"/><path d="M 435.012 289.281 C 453.333 299.752, 473 312.886, 473 314.649 C 473 316.485, 471.505 316.384, 455.969 313.498 C 442.686 311.030, 433.907 309.491, 415.750 306.451 C 399.106 303.664, 400.290 303.754, 402.534 305.450 C 403.615 306.268, 404.882 306.951, 405.350 306.968 C 405.817 306.986, 411.217 308.978, 417.350 311.396 C 423.482 313.814, 431.425 316.937, 435 318.335 C 448.887 323.768, 449.263 323.978, 447.960 325.548 C 447.297 326.347, 446.140 327, 445.388 327 C 441.515 327, 401 343.522, 401 345.101 C 401 345.447, 404.938 344.423, 409.750 342.826 C 434.199 334.714, 454.843 331.099, 481 330.350 C 497.620 329.873, 501.130 329.497, 504.767 327.798 C 507.114 326.702, 509.486 324.961, 510.038 323.929 C 510.888 322.340, 510.387 321.644, 506.771 319.391 C 504.422 317.928, 500.565 315.441, 498.200 313.865 C 495.835 312.289, 493.705 311, 493.467 311 C 493.230 311, 490.215 309.287, 486.768 307.194 C 470.960 297.594, 447.492 287.083, 432.733 282.993 C 419.220 279.249, 419.680 280.518, 435.012 289.281 M 322 309.047 C 315.675 310.071, 305.775 311.672, 300 312.606 C 282.008 315.514, 266.779 319.927, 248.781 327.447 C 243.150 329.800, 242.791 331.451, 248.097 330.592 C 266.046 327.686, 305.554 323.154, 306.314 323.914 C 307.772 325.372, 306.347 326.714, 299.206 330.607 C 295.518 332.617, 288.225 336.634, 283 339.532 C 277.775 342.431, 267.650 347.838, 260.500 351.549 C 247.063 358.522, 245.289 359.622, 246.128 360.461 C 246.848 361.181, 274.675 352.478, 287.507 347.518 C 307.944 339.620, 327.329 328.839, 335.764 320.680 C 339.518 317.050, 341.977 312.143, 341.994 308.250 C 342.002 306.535, 336.053 306.773, 322 309.047 M 605 318.867 C 605 319.479, 607.217 325.947, 609.927 333.240 C 625.168 374.254, 626.334 378, 623.867 378 C 622.585 378, 615.653 370.559, 601.975 354.500 C 596.822 348.450, 590.557 341.250, 588.052 338.500 C 585.548 335.750, 581.711 331.327, 579.526 328.671 C 577.341 326.015, 575.414 324.259, 575.244 324.768 C 575.074 325.278, 578.100 331.239, 581.967 338.014 C 585.835 344.788, 589 350.469, 589 350.637 C 589 350.805, 591.025 354.368, 593.500 358.554 C 598.064 366.274, 598.936 369, 596.840 369 C 595.590 369, 564.153 359.441, 552.241 355.439 C 545.087 353.035, 539.683 352.214, 541.550 353.814 C 542.073 354.262, 547.225 356.597, 553 359.004 C 566.863 364.782, 598.097 380.556, 609.939 387.759 C 620.557 394.217, 622.587 396.684, 616.378 395.583 C 611.788 394.769, 567.005 384.743, 555.468 381.947 C 551.050 380.876, 547.112 380, 546.718 380 C 542.721 380, 557.275 389.195, 574.500 397.553 C 595.865 407.919, 617.796 413.657, 632.500 412.727 C 641.280 412.171, 649 409.626, 649 407.287 C 649 404.588, 632.947 363.751, 627.446 352.455 C 619.874 336.906, 605 314.650, 605 318.867 M 204.986 467.013 C 203.241 467.417, 203.750 467.786, 207.403 468.763 C 210.852 469.685, 212.534 470.827, 214.011 473.250 C 215.952 476.434, 215.993 478.581, 215.993 579.500 C 215.993 680.192, 215.948 682.572, 214.024 685.729 C 212.553 688.141, 210.914 689.245, 207.540 690.094 C 205.057 690.720, 203.253 691.600, 203.531 692.051 C 204.226 693.175, 256 693.254, 256 692.131 C 256 691.639, 253.947 690.720, 251.438 690.089 C 247.468 689.089, 246.627 688.392, 244.960 684.720 C 243.178 680.796, 243.042 677.765, 243.022 641.450 C 243.006 612.386, 243.307 602.093, 244.200 601.200 C 245.079 600.321, 253.436 599.994, 275.450 599.978 C 301.669 599.959, 306.643 599.704, 314.461 597.976 C 336.988 592.996, 354.060 580.211, 362.919 561.687 C 367.523 552.060, 369.308 544.324, 369.308 534 C 369.308 523.700, 367.525 515.944, 362.962 506.401 C 353.929 487.510, 338.056 475.107, 314.908 468.851 C 306.705 466.634, 305.287 466.577, 256.848 466.539 C 229.539 466.518, 206.201 466.731, 204.986 467.013 M 553 466.955 C 523.072 467.457, 520.880 467.610, 525.299 468.894 C 528.776 469.903, 530.497 471.060, 531.549 473.094 C 532.790 475.494, 533 490.908, 533 579.500 C 533 695.907, 533.549 687.746, 525.567 689.981 C 523.075 690.679, 521.280 691.644, 521.577 692.125 C 522.237 693.192, 569.714 693.167, 572.446 692.098 C 574.003 691.488, 573.448 691.098, 569.668 690.147 C 566.080 689.243, 564.471 688.181, 562.976 685.729 C 561.103 682.657, 561.007 680.520, 561.004 641.857 C 561 605.716, 561.175 601.147, 562.582 600.607 C 563.452 600.273, 577.372 600, 593.516 600 C 624.742 600, 631.712 599.267, 643 594.793 C 667.116 585.236, 681.721 568.153, 685.939 544.566 C 691.169 515.323, 673.835 484.890, 645.230 473.095 C 629.049 466.422, 620.133 465.829, 553 466.955 M 282 469.656 C 271.883 470.346, 259.128 472.347, 253.192 474.174 C 242.020 477.614, 243 471.582, 243 536.918 C 243 568.223, 243.273 594.548, 243.607 595.418 C 244.139 596.805, 247.459 597, 270.569 597 C 295.757 597, 297.265 596.892, 304.624 594.555 C 323.544 588.547, 336.307 572.761, 341.158 549.365 C 347.791 517.385, 334.217 484.687, 309.639 473.435 C 304.771 471.206, 293.003 468.846, 288.500 469.195 C 287.400 469.280, 284.475 469.488, 282 469.656 M 598.500 469.669 C 590.306 470.136, 573.377 472.956, 568.555 474.657 C 560.351 477.552, 561 472.094, 561 538.155 L 561 597 586.364 597 C 600.313 597, 614.149 596.541, 617.109 595.979 C 625.260 594.434, 633.875 589.939, 640.520 583.764 C 647.604 577.182, 652.245 569.825, 656.352 558.665 C 659.210 550.900, 659.361 549.717, 659.429 534.500 C 659.492 520.379, 659.224 517.622, 657.153 511.025 C 649.137 485.498, 633.086 471.139, 611 469.740 C 607.425 469.513, 601.800 469.482, 598.500 469.669 M 444 527.611 C 429.081 530.416, 421.638 532.702, 414 536.824 C 391.048 549.211, 377.506 573.195, 376.261 603.663 C 375.697 617.463, 376.737 625.041, 381.031 638.424 C 388.728 662.416, 405.119 680.721, 427.115 689.890 C 436.072 693.623, 447.549 695.299, 460 694.692 C 484.766 693.485, 499.419 686.546, 509.715 671.153 C 513.826 665.007, 517.303 657.970, 516.584 657.251 C 515.799 656.466, 514 658.059, 514 659.540 C 514 664.560, 500.026 679.906, 491.885 683.826 C 477.764 690.625, 457.803 690.494, 444.026 683.513 C 434.495 678.684, 422.774 665.558, 416.099 652.239 C 412.275 644.611, 406.991 629.186, 407.631 627.520 C 408.039 626.457, 480.519 590.125, 504.250 579.088 C 514.152 574.482, 514.075 574.645, 510.919 564.915 C 505.333 547.700, 492.831 536.039, 473.500 530.013 C 466.662 527.882, 449.843 526.512, 444 527.611 M 761.500 527.646 C 741.321 530.890, 727.385 537.689, 715.349 550.162 C 708.642 557.113, 704.055 564.537, 700.105 574.837 C 688.007 606.384, 695.432 646.855, 717.599 670.193 C 733.720 687.165, 751.654 695.002, 774.360 694.999 C 794.297 694.995, 810.066 689.894, 820.296 680.137 C 827.791 672.989, 837.383 657, 834.176 657 C 833.648 657, 832.925 658.162, 832.569 659.583 C 830.780 666.707, 819.457 679.215, 810.844 683.579 C 805.003 686.539, 793.326 689, 785.122 689 C 778.135 689, 769.309 686.785, 762.005 683.198 C 754.628 679.576, 743.637 668.301, 737.860 658.429 C 732.620 649.474, 725.732 631.888, 726.194 628.645 C 726.440 626.920, 732.380 623.564, 756.537 611.500 C 773.058 603.250, 796.570 591.682, 808.787 585.792 C 833.420 573.918, 832.401 574.890, 829.649 565.909 C 824.230 548.220, 809.707 534.757, 790.433 529.557 C 784.387 527.926, 766.931 526.772, 761.500 527.646 M 438.223 531.485 C 416.693 537.555, 403.738 561.952, 403.698 596.500 C 403.683 609.690, 405.043 621.443, 406.785 623.185 C 407.213 623.613, 427.009 614.184, 450.777 602.232 L 493.990 580.500 493.995 576.432 C 494.007 566.599, 486.778 550.995, 478.269 542.486 C 470.409 534.627, 462.586 531.052, 451.960 530.465 C 446.209 530.147, 441.810 530.474, 438.223 531.485 M 758.223 531.062 C 743.250 534.013, 730.418 549.029, 724.948 570 C 721.165 584.505, 721.318 620.725, 725.173 623.107 C 726.714 624.059, 811.913 581.391, 812.732 579.257 C 813.785 576.513, 810.974 565.790, 806.937 557.149 C 797.448 536.839, 779.010 526.966, 758.223 531.062 M 267 739.314 C 265.075 739.924, 261.453 742.466, 258.952 744.962 C 255.369 748.538, 254.017 750.880, 252.581 755.997 C 245.889 779.847, 263.072 799.647, 284.212 792.444 C 296.547 788.240, 303.026 771.904, 298.883 755.451 C 297.492 749.927, 291.012 742.365, 285.539 739.878 C 281.009 737.821, 272.525 737.562, 267 739.314 M 422.020 739.752 C 415.332 743.112, 412.253 751.276, 414.975 758.434 C 416.112 761.426, 420.830 764.574, 426.500 766.125 C 443.380 770.744, 446 772.392, 446 778.389 C 446 783.463, 444.462 786.712, 441.293 788.332 C 434.285 791.914, 425.578 791.560, 419.519 787.448 C 413.272 783.209, 410.525 784.740, 416.045 789.385 C 420.152 792.840, 426.216 794.325, 433.773 793.725 C 444.223 792.895, 450 787.296, 450 777.999 C 450 771.868, 445.640 767.836, 435.935 764.990 C 422.897 761.167, 420.441 760.017, 418.577 756.861 C 415.215 751.170, 419.360 743.203, 426.631 741.378 C 431.377 740.187, 438.759 741.578, 442.391 744.349 C 446.236 747.282, 448 747.692, 448 745.655 C 448 739.667, 430.227 735.628, 422.020 739.752 M 487.259 739.432 C 480.614 742.434, 479.346 751.014, 484.512 758.016 C 485.880 759.871, 487 761.691, 487 762.061 C 487 762.431, 485.209 763.920, 483.020 765.368 C 470.229 773.833, 474.096 791.583, 489.174 793.620 C 495.929 794.532, 500.330 793.394, 505.598 789.374 L 510.241 785.829 513.913 789.415 C 517.207 792.632, 521 794.167, 521 792.284 C 521 791.891, 518.883 789.419, 516.296 786.793 L 511.591 782.017 515.434 774.136 C 517.547 769.802, 518.958 765.741, 518.569 765.111 C 517.420 763.253, 516.127 764.765, 513.039 771.573 C 511.372 775.251, 509.495 778, 508.651 778 C 507.233 778, 495 765.455, 495 764 C 495 763.610, 497.069 761.987, 499.597 760.395 C 507.531 755.399, 509.420 747.740, 504.168 741.862 C 501.770 739.178, 500.506 738.637, 495.918 738.330 C 492.565 738.106, 489.265 738.525, 487.259 739.432 M 828.450 739.344 C 826.773 740.109, 824.186 742.179, 822.700 743.944 C 820.503 746.555, 820 748.150, 820 752.500 C 820 761.373, 822.632 763.406, 840.782 768.554 C 848.673 770.792, 852 773.908, 852 779.060 C 852 789.729, 836.260 794.608, 824.926 787.453 C 820.468 784.639, 819 784.393, 819 786.458 C 819 787.260, 821.138 789.172, 823.750 790.708 C 827.961 793.183, 829.482 793.500, 837.157 793.500 C 845.337 793.500, 846.026 793.329, 849.657 790.410 C 857.372 784.206, 857.644 773.405, 850.208 768.553 C 848.168 767.222, 843.709 765.422, 840.298 764.552 C 831.564 762.324, 825.322 759.470, 824.070 757.131 C 821.349 752.046, 823.933 745.209, 829.590 742.524 C 835.008 739.953, 843.713 740.781, 848.336 744.307 C 852.310 747.338, 854 747.698, 854 745.514 C 854 744.697, 852.187 742.829, 849.971 741.362 C 845.063 738.114, 833.522 737.032, 828.450 739.344 M 202.694 739.639 C 201.026 741.307, 203.889 742, 212.452 742 C 220.041 742, 221.900 742.296, 222.393 743.582 C 222.727 744.452, 223 755.964, 223 769.165 C 223 787.921, 223.273 793.076, 224.250 792.751 C 225.187 792.439, 225.625 786.100, 226 767.418 L 226.500 742.500 235.920 742 C 242.193 741.667, 245.479 741.082, 245.754 740.250 C 246.075 739.276, 241.437 739, 224.750 739 C 212.971 739, 203.046 739.288, 202.694 739.639 M 311 759.184 C 311 777.709, 311.174 779.729, 313.121 783.750 C 315.983 789.661, 321.256 793.033, 328.683 793.700 C 339.280 794.652, 346.658 791.166, 350.104 783.579 C 351.709 780.044, 351.959 776.797, 351.978 759.250 C 351.997 741.907, 351.785 739, 350.500 739 C 349.219 739, 348.997 741.815, 348.978 758.250 C 348.953 779.845, 348.061 783.684, 342.074 787.948 C 337.234 791.394, 328.732 791.784, 323.023 788.823 C 315.180 784.754, 314.550 782.649, 314.176 759.250 C 313.909 742.533, 313.604 739, 312.426 739 C 311.238 739, 311 742.373, 311 759.184 M 367 766 C 367 789.074, 367.213 793, 368.468 793 C 369.660 793, 369.990 790.787, 370.218 781.250 L 370.500 769.500 379.724 769.213 L 388.947 768.926 394.981 780.963 C 398.646 788.273, 401.601 793, 402.508 793 C 404.813 793, 404.379 791.494, 399 780.807 C 396.250 775.344, 394 770.285, 394 769.566 C 394 768.846, 395.601 767.187, 397.558 765.879 C 406.356 759.997, 406.088 746.228, 397.078 741.164 C 393.675 739.251, 391.706 739, 380.114 739 L 367 739 367 766 M 540.496 740.007 C 539.559 741.522, 541.620 741.939, 551.500 742.232 L 560.500 742.500 560.767 767.828 C 560.974 787.360, 561.317 793.061, 562.267 792.745 C 563.182 792.441, 563.629 785.908, 564 767.418 L 564.500 742.500 573.920 742 C 580.193 741.667, 583.479 741.082, 583.754 740.250 C 584.281 738.653, 541.481 738.412, 540.496 740.007 M 592.625 741.750 C 591.932 745.322, 591.915 788.962, 592.606 791.250 C 592.897 792.212, 593.765 793, 594.536 793 C 595.641 793, 595.996 790.524, 596.218 781.250 L 596.500 769.500 605 769.245 C 609.675 769.105, 614.007 769.330, 614.626 769.745 C 615.245 770.160, 618.287 775.563, 621.384 781.750 C 624.783 788.538, 627.608 793, 628.508 793 C 630.789 793, 630.424 791.812, 624.537 780.074 L 619.074 769.181 622.622 766.475 C 630.088 760.780, 632.143 752.503, 627.730 745.898 C 623.889 740.148, 620.255 739.003, 605.829 739.002 L 593.159 739 592.625 741.750 M 656.182 741.750 C 655.624 743.263, 650.855 755.069, 645.584 767.987 C 640.313 780.904, 636 791.817, 636 792.237 C 636 792.656, 636.700 793, 637.556 793 C 638.465 793, 639.946 791.024, 641.116 788.250 C 642.217 785.638, 643.835 781.813, 644.711 779.750 L 646.304 776 659.529 776 C 668.958 776, 673.056 776.362, 673.803 777.262 C 674.379 777.956, 675.837 781.219, 677.043 784.512 C 679.493 791.201, 681.501 793.934, 682.879 792.457 C 683.416 791.882, 679.546 781.023, 673.183 765.250 C 663.003 740.017, 662.488 739, 659.894 739 C 657.863 739, 656.945 739.680, 656.182 741.750 M 684 740.285 C 684 742.049, 686.602 749.122, 695.851 772.500 C 702.772 789.994, 704.037 792.500, 705.951 792.500 C 708.379 792.500, 708.330 792.605, 720.828 760.500 C 729.139 739.149, 729.043 739.500, 726.611 739.500 C 725.231 739.500, 724.180 740.983, 722.714 745 C 721.610 748.025, 718.808 755.450, 716.487 761.500 C 714.167 767.550, 711.037 775.780, 709.532 779.788 C 707.438 785.366, 706.501 786.831, 705.539 786.032 C 704.848 785.459, 700.319 774.642, 695.476 761.995 C 690.071 747.878, 686.155 739, 685.335 739 C 684.601 739, 684 739.578, 684 740.285 M 737.451 740.267 C 737.184 740.964, 737.085 753.002, 737.232 767.017 L 737.500 792.500 754.342 792.775 C 767.637 792.991, 771.094 792.781, 770.759 791.775 C 770.448 790.837, 766.479 790.427, 755.741 790.224 L 741.145 789.947 740.823 781.584 C 740.645 776.984, 740.729 771.933, 741.008 770.360 L 741.517 767.500 754.332 767.220 C 763.869 767.011, 767.043 766.627, 766.741 765.720 C 766.458 764.867, 762.567 764.416, 753.816 764.221 L 741.295 763.942 740.676 755.220 C 739.684 741.240, 738.887 742, 754.535 742 C 767.946 742, 771.449 741.536, 770.435 739.895 C 769.516 738.408, 738.028 738.763, 737.451 740.267 M 781.451 740.267 C 781.184 740.964, 781.085 753.002, 781.232 767.017 L 781.500 792.500 797.750 792.775 C 811.637 793.010, 814 792.832, 814 791.552 C 814 790.306, 811.615 790.008, 799.750 789.777 L 785.500 789.500 785.233 764.250 C 785.003 742.485, 784.757 739, 783.451 739 C 782.619 739, 781.718 739.570, 781.451 740.267 M 267.500 742.659 C 258.971 747.147, 255 754.313, 255 765.217 C 255 769.095, 255.550 774.104, 256.223 776.349 C 257.936 782.068, 264.413 788.514, 269.929 789.989 C 284.812 793.969, 296.527 783.384, 296.479 766 C 296.447 754.345, 291.739 745.878, 283.338 742.368 C 278.997 740.554, 271.228 740.697, 267.500 742.659 M 487.455 743.455 C 483.492 747.417, 484.581 754.596, 489.872 759.384 C 491.638 760.983, 492.372 761.089, 494.778 760.092 C 500.327 757.794, 503 754.337, 503 749.460 C 503 743.430, 500.546 741, 494.455 741 C 490.962 741, 489.341 741.568, 487.455 743.455 M 370.747 742.587 C 369.705 743.628, 369.837 763.195, 370.897 764.868 C 371.566 765.924, 374.129 766.148, 382.150 765.851 C 390.980 765.524, 393.015 765.126, 395.733 763.190 C 401.578 759.028, 401.916 750.091, 396.424 744.926 C 394.066 742.708, 392.885 742.472, 382.669 742.170 C 376.522 741.989, 371.157 742.176, 370.747 742.587 M 596.432 743.318 C 596.154 744.042, 596.055 749.330, 596.213 755.068 L 596.500 765.500 604.743 765.790 C 609.277 765.950, 614.813 765.589, 617.046 764.988 C 627.057 762.292, 629.655 750.652, 621.614 744.519 C 618.561 742.190, 617.505 742, 607.624 742 C 599.705 742, 596.806 742.341, 596.432 743.318 M 658.009 746.250 C 652.984 758.179, 648.156 771.443, 648.586 772.139 C 648.879 772.613, 653.831 773, 659.590 773 C 667.698 773, 670.185 772.680, 670.606 771.585 C 671.266 769.864, 661.228 744, 659.900 744 C 659.381 744, 658.531 745.013, 658.009 746.250 M 486.500 766.861 C 480.945 770.292, 479.500 772.733, 479.500 778.687 C 479.500 783.588, 479.837 784.465, 482.706 787.028 C 488.559 792.258, 497.447 792.181, 503.521 786.847 C 505.435 785.167, 507 783.334, 507 782.774 C 507 781.713, 491.077 764.997, 490.073 765.004 C 489.758 765.006, 488.150 765.841, 486.500 766.861" stroke="none" fill="#3d3e3d" fill-rule="evenodd"/><path d="M 505 68.583 C 455.832 71.230, 404.957 82.636, 356 101.989 C 341.022 107.910, 305.795 125.519, 290.284 134.838 C 223.954 174.691, 165.236 234.076, 127.470 299.500 C 91.755 361.371, 73.130 419.634, 64.815 495.500 C 63.073 511.398, 63.084 561.606, 64.834 578 C 70.115 627.472, 79.108 664.730, 96.327 708.466 C 126.878 786.066, 175.423 851.334, 242.334 904.766 C 257.737 917.067, 286.703 936.371, 304.619 946.276 C 342.601 967.273, 388.664 984.808, 428.500 993.432 C 435.100 994.861, 442.300 996.448, 444.500 996.958 C 450.703 998.396, 477.135 1001.884, 491 1003.093 C 511.488 1004.880, 545.221 1005.356, 559.500 1004.060 C 603.528 1000.063, 602.791 1000.164, 630 994.348 C 670.119 985.772, 700.488 975.136, 739.500 955.997 C 803.505 924.597, 857.214 880.614, 902.514 822.500 C 949.873 761.746, 983.015 684.491, 994.534 608 C 999.501 575.017, 1001.285 534.523, 999.093 504.500 C 997.905 488.215, 993.362 454.582, 990.517 441 C 982.762 403.984, 968.453 362.984, 951.079 328 C 934.573 294.763, 916.633 267.312, 889.904 234.392 C 878.916 220.861, 849.141 191.132, 834.927 179.500 C 833.583 178.400, 830.012 175.417, 826.991 172.872 C 814.978 162.748, 791.674 146.267, 774.500 135.750 C 717.743 100.995, 649.842 78.008, 581.500 70.415 C 569.141 69.042, 518.853 67.838, 505 68.583 M 416.667 278.667 C 415.366 279.968, 416.056 280.714, 420.750 283.079 C 427.173 286.316, 445.780 296.810, 448.945 298.981 C 450.350 299.945, 455.416 303.309, 460.201 306.456 C 469.140 312.334, 473.439 316.103, 469.528 314.633 C 467.902 314.022, 428.269 306.991, 403.173 302.861 C 396.858 301.822, 395.288 302.038, 396.376 303.800 C 396.994 304.799, 407.608 309.266, 431.250 318.475 C 439.363 321.636, 446 324.359, 446 324.528 C 446 324.697, 443.863 325.602, 441.250 326.540 C 414.812 336.031, 394.544 345.170, 395.275 347.271 C 395.905 349.082, 398.406 348.609, 409.500 344.578 C 431.865 336.451, 456.030 332.215, 485.314 331.287 C 504.068 330.692, 504.140 330.681, 508.126 327.793 C 515.209 322.663, 513.466 320.838, 487 305.657 C 463.050 291.921, 447.427 285.324, 426.333 280.044 C 417.015 277.712, 417.546 277.787, 416.667 278.667 M 329.500 306.599 C 301.142 310.577, 281.344 314.312, 271 317.636 C 256.364 322.339, 240 329.377, 240 330.968 C 240 331.909, 243.085 332.516, 245.470 332.045 C 246.003 331.940, 251.853 331.205, 258.470 330.413 C 265.086 329.621, 278.067 327.945, 287.315 326.688 C 296.564 325.431, 304.336 324.735, 304.587 325.140 C 305.064 325.912, 302.389 327.454, 277 341.044 C 237.688 362.086, 238.604 361.550, 239.512 363.019 C 240.082 363.941, 240.994 363.754, 255 359.838 C 287.755 350.680, 313.899 339.164, 331.631 326.085 C 339.612 320.197, 342.370 316.142, 342.443 310.185 C 342.511 304.639, 342.833 304.728, 329.500 306.599 M 602.604 314.832 C 602.090 315.663, 602.886 318.007, 613.529 347 C 621.999 370.072, 623.961 376, 623.127 376 C 622.713 376, 617.452 370.267, 611.437 363.261 C 582.957 330.086, 572.714 318.886, 571.744 319.856 C 571.080 320.520, 571.924 322.969, 574.268 327.177 C 576.205 330.655, 579.031 335.750, 580.550 338.500 C 582.068 341.250, 586.200 348.603, 589.731 354.840 C 593.263 361.078, 595.927 366.406, 595.651 366.682 C 595.375 366.958, 583.978 363.783, 570.325 359.627 C 540.409 350.521, 540.413 350.522, 539.491 352.015 C 538.436 353.721, 540.599 355.282, 548.500 358.518 C 566.931 366.065, 611.307 388.876, 615 392.701 C 616.728 394.491, 617.324 394.573, 600 390.642 C 536.538 376.241, 542 377.308, 542 379.312 C 542 381.868, 571.944 398.813, 587 404.777 C 605.597 412.144, 625.791 415.938, 636.486 414.076 C 643.932 412.779, 649.880 410.475, 650.596 408.610 C 650.876 407.881, 649.993 404.407, 648.634 400.892 C 647.275 397.376, 643.388 387.324, 639.997 378.554 C 629.567 351.577, 622.240 337.549, 609.807 320.750 C 604.939 314.173, 603.660 313.123, 602.604 314.832 M 750 367.191 C 773.673 388.972, 798.998 416.402, 797.146 418.254 C 796.434 418.966, 795.660 418.987, 794.792 418.316 C 794.082 417.766, 791.700 416.612, 789.500 415.750 C 787.300 414.889, 781.900 412.522, 777.500 410.490 C 744.493 395.249, 723.802 386, 722.713 386 C 720.756 386, 724.967 389.555, 738 398.908 C 744.875 403.841, 750.950 408.266, 751.500 408.741 C 752.050 409.215, 755.875 411.972, 760 414.867 C 764.125 417.762, 767.500 420.664, 767.500 421.315 C 767.500 422.089, 764.377 422.741, 758.500 423.195 C 729.506 425.435, 704.489 429.830, 708.086 432.053 C 708.672 432.415, 715.530 432.803, 723.326 432.914 C 731.122 433.026, 745.375 434.050, 755 435.190 C 780.101 438.163, 781.504 438.392, 781.467 439.500 C 781.407 441.302, 764.325 446.403, 741 451.583 C 731.925 453.599, 724.050 455.698, 723.500 456.248 C 722.833 456.914, 730.002 457.052, 745 456.660 C 775.281 455.870, 798.054 452.401, 819.498 445.314 C 829.094 442.143, 837.592 438.469, 838.415 437.137 C 838.745 436.604, 836.585 434.443, 833.616 432.334 C 830.647 430.225, 824.730 424.508, 820.467 419.629 C 802.616 399.201, 785.937 385.801, 755.767 367.652 C 746.222 361.910, 744.074 361.738, 750 367.191 M 200.534 465.945 C 199.414 467.757, 200.959 468.970, 205.264 469.658 C 207.545 470.023, 210.445 471.354, 211.706 472.615 L 214 474.909 214 579.263 C 214 667.768, 213.785 683.913, 212.582 685.559 C 211.802 686.626, 208.764 688.196, 205.832 689.046 C 202.542 689.999, 200.500 691.148, 200.500 692.046 C 200.500 694.273, 257.141 694.740, 258.978 692.527 C 260.379 690.838, 260.372 690.834, 253.304 689.025 C 250.884 688.406, 248.238 686.846, 247.054 685.341 C 245.059 682.806, 245 681.566, 245 642.469 L 245 602.207 276.750 601.726 C 310.495 601.214, 314.535 600.724, 327.500 595.573 C 344.646 588.761, 356.378 578.134, 364.026 562.485 C 373.224 543.666, 373.072 523.938, 363.580 504.577 C 356.357 489.845, 346.011 480.033, 329.808 472.547 C 314.968 465.690, 315.298 465.723, 255.343 465.285 C 218.031 465.013, 200.983 465.218, 200.534 465.945 M 517.647 466.477 C 517.006 468.147, 520.353 470, 524.009 470 C 525.043 470, 527.151 471.086, 528.694 472.413 L 531.500 474.827 531.500 579.308 C 531.500 680.723, 531.444 683.852, 529.591 685.899 C 528.541 687.059, 525.841 688.479, 523.591 689.054 C 516.643 690.829, 516.623 690.841, 518.022 692.527 C 519.846 694.724, 576.500 694.275, 576.500 692.064 C 576.500 691.250, 574.982 690.259, 573 689.778 C 571.075 689.312, 568.418 688.383, 567.095 687.715 C 562.249 685.267, 562 682.981, 562 641.032 L 562 602 589.250 601.994 C 632.812 601.985, 647.070 598.519, 665.253 583.522 C 688.032 564.732, 694.806 530.553, 680.986 504.131 C 671.412 485.827, 655.990 473.799, 634.450 467.836 C 626.800 465.718, 624.460 465.621, 572.378 465.263 C 523.658 464.928, 518.195 465.049, 517.647 466.477 M 265.567 473.027 C 251.974 475.316, 246.176 477.424, 245.472 480.333 C 245.183 481.525, 245.071 507.925, 245.224 539 L 245.500 595.500 272 595.500 C 295.359 595.500, 299.152 595.276, 304 593.613 C 321.607 587.573, 334.713 572.035, 339.520 551.500 C 341.463 543.200, 341.742 528.082, 340.121 519 C 336.836 500.603, 325.138 482.694, 312.052 476.030 C 301.409 470.609, 285.886 469.607, 265.567 473.027 M 592 471.479 C 591.175 471.666, 587.125 472.349, 583 472.997 C 573.063 474.556, 566.083 476.615, 563.834 478.650 C 562.096 480.223, 562 483.331, 562 538.250 L 562 596.189 589.250 595.763 C 614.118 595.373, 617.017 595.146, 622.419 593.164 C 639.131 587.030, 650.576 573.913, 656.185 554.465 C 659.458 543.120, 659.422 523.982, 656.107 512.500 C 650.914 494.515, 640.925 481.681, 627 475.105 C 619.728 471.670, 619.105 471.556, 606.500 471.351 C 599.350 471.234, 592.825 471.292, 592 471.479 M 437.360 527.413 C 417.151 531.260, 403.447 539.146, 392.028 553.500 C 375.237 574.606, 370.078 606.341, 378.637 635.875 C 387.473 666.368, 409.172 687.894, 437.755 694.523 C 441.359 695.359, 448.981 695.999, 455.312 695.999 C 482.342 695.995, 499.213 688.907, 509.967 673.036 C 517.540 661.861, 519.940 654.978, 516.250 655.020 C 515.079 655.033, 513.449 657.268, 511.325 661.770 C 507.840 669.158, 500.274 677.583, 493.624 681.480 C 480.953 688.906, 455.915 688.803, 443 681.272 C 436.981 677.762, 427.241 667.886, 422.514 660.500 C 415.759 649.945, 408.003 630.422, 409.563 627.898 C 410.624 626.182, 508.530 578, 510.957 578 C 511.468 578, 512.535 577.074, 513.329 575.941 C 514.593 574.136, 514.558 573.061, 513.040 567.191 C 510.574 557.659, 506.936 551.110, 500.291 544.243 C 493.583 537.312, 484.907 532.004, 475.282 528.943 C 466.628 526.192, 447.772 525.431, 437.360 527.413 M 755.360 527.476 C 727.825 532.474, 707.782 549.234, 698.528 575 C 688.293 603.496, 692.490 638.051, 709.095 662 C 717.459 674.064, 728.160 683.330, 740.290 689.015 C 751.147 694.102, 760.391 696, 774.315 696 C 791.901 696, 805.897 692.607, 815.462 686.026 C 824.669 679.692, 836 664.014, 836 657.610 C 836 652.979, 833.225 654.744, 830.052 661.391 C 824.215 673.621, 813.787 682.321, 801.076 685.565 C 796.410 686.756, 791.621 687.101, 783.576 686.825 C 771.092 686.396, 765.051 684.299, 755.474 677.068 C 745.482 669.524, 734.109 651.466, 729.121 635.225 C 727.377 629.545, 727.342 628.801, 728.750 627.393 C 730.857 625.286, 823.850 579.452, 829.938 577.520 C 832.862 576.592, 833.269 573.825, 831.489 566.958 C 829.086 557.686, 825.262 551.264, 817.500 543.473 C 802.716 528.631, 780.503 522.913, 755.360 527.476 M 440.324 532.482 C 418.592 537.276, 405 562.101, 405 597 C 405 604.849, 406.622 620.944, 407.503 621.833 C 407.874 622.208, 492.078 580.269, 493.258 579.121 C 494.549 577.866, 490.244 563.257, 486.463 556.062 C 482.932 549.342, 475.407 540.880, 469.500 536.988 C 462.315 532.253, 449.988 530.349, 440.324 532.482 M 759.436 532.384 C 739.005 536.454, 725.216 558.684, 723.389 590.500 C 722.762 601.422, 724.263 619.662, 725.926 621.326 C 726.633 622.033, 809.089 581.311, 811.175 579.225 C 812.516 577.884, 809.165 565.052, 805.466 557.363 C 796.386 538.484, 778.241 528.637, 759.436 532.384 M 270.326 737.072 C 262.295 738.607, 257.154 742.701, 252.840 751 C 249.703 757.036, 249.046 769.772, 251.486 777.284 C 254.940 787.921, 262.190 793.924, 272.591 794.759 C 285.481 795.794, 292.982 791.844, 298.181 781.283 C 301.044 775.467, 301.416 773.747, 301.454 766.112 C 301.501 756.887, 300.464 753.206, 295.918 746.462 C 291.019 739.195, 280.130 735.199, 270.326 737.072 M 429.500 736.486 C 428.950 736.678, 426.803 737.120, 424.729 737.467 C 416.323 738.874, 410.630 748.200, 412.941 756.780 C 414.644 763.104, 417.028 764.550, 435 770.159 C 443.532 772.822, 445.706 775.425, 444.549 781.593 C 443.006 789.816, 428.529 792.104, 419.152 785.605 C 414.891 782.652, 411.999 782.956, 412.002 786.357 C 412.003 787.824, 413.498 789.444, 416.740 791.493 C 420.653 793.965, 422.763 794.550, 428.878 794.859 C 438.151 795.327, 442.629 794.010, 446.964 789.537 C 449.895 786.513, 450.421 785.217, 450.727 780.261 C 450.943 776.774, 450.568 773.525, 449.777 772.030 C 448.069 768.800, 442.730 765.259, 437.599 763.951 C 427.502 761.379, 422.973 759.600, 420.898 757.392 C 416.171 752.360, 419.429 745.039, 427.344 742.907 C 432.539 741.508, 436.781 742.383, 442.090 745.949 C 445.371 748.152, 446.842 748.620, 448.205 747.890 C 449.192 747.362, 450 746.349, 450 745.639 C 450 743.998, 446.378 740.669, 442.500 738.747 C 439.477 737.248, 431.354 735.835, 429.500 736.486 M 490.275 736.973 C 485.754 738.044, 482.078 740.666, 480.955 743.617 C 479.246 748.114, 479.849 753.498, 482.500 757.405 C 483.875 759.431, 484.973 761.406, 484.939 761.794 C 484.905 762.182, 482.993 763.861, 480.689 765.524 C 473.444 770.755, 471.633 781.013, 476.745 787.861 C 480.629 793.062, 483.671 794.470, 491.826 794.841 C 499.267 795.178, 499.693 795.072, 504.919 791.554 L 510.321 787.919 513.411 790.815 C 516.949 794.132, 519.353 795.186, 521.500 794.362 C 523.715 793.512, 523.434 792.854, 518.533 787.437 C 516.077 784.722, 514.052 781.949, 514.033 781.276 C 514.015 780.603, 515.586 776.794, 517.524 772.811 C 521.295 765.064, 521.352 762.669, 517.754 763.180 C 516.069 763.419, 514.658 765.263, 512.160 770.492 L 508.821 777.484 502.910 771.234 C 499.660 767.797, 497 764.614, 497 764.162 C 497 763.709, 498.238 762.699, 499.750 761.919 C 505.780 758.808, 508 755.187, 508 748.466 C 508 744.493, 507.495 743.295, 504.600 740.400 C 502.534 738.334, 500.212 737, 498.682 737 C 497.297 737, 495.564 736.822, 494.832 736.604 C 494.099 736.387, 492.049 736.552, 490.275 736.973 M 830.479 737.364 C 824.422 739.307, 821.472 741.627, 819.502 745.995 C 817.087 751.352, 818.027 758.375, 821.669 762.176 C 824.122 764.737, 832.086 767.984, 839.540 769.463 C 847.692 771.081, 851.965 776.546, 849.921 782.741 C 847.613 789.732, 835.021 791.461, 825.510 786.093 C 821.049 783.575, 819.959 783.310, 818.488 784.385 C 815.803 786.348, 818.042 789.384, 824.509 792.548 C 829.515 794.997, 830.823 795.208, 838.538 794.803 C 847.601 794.327, 850.342 793.101, 854.352 787.730 C 856.809 784.440, 857.619 775.511, 855.778 772.030 C 854.069 768.800, 848.730 765.259, 843.599 763.951 C 829.262 760.299, 825.377 758.136, 824.403 753.265 C 823.185 747.177, 832.351 740.905, 840.288 742.394 C 842.203 742.754, 845.714 744.353, 848.090 745.949 C 851.371 748.152, 852.842 748.620, 854.205 747.890 C 856.873 746.463, 856.393 744.401, 852.746 741.620 C 846.622 736.949, 837.316 735.170, 830.479 737.364 M 202.152 737.885 C 201.410 738.355, 200.965 739.586, 201.162 740.620 C 201.475 742.259, 202.737 742.564, 211.010 743 L 220.500 743.500 220.767 768.142 C 221.046 793.809, 221.416 795.929, 225.356 794.417 C 226.767 793.875, 226.999 790.687, 227.233 768.650 L 227.500 743.500 237.156 743.215 C 245.129 742.980, 246.926 742.635, 247.461 741.241 C 248.861 737.592, 245.577 736.999, 224.059 737.015 C 212.751 737.024, 202.893 737.415, 202.152 737.885 M 311.248 737.826 C 310.323 738.413, 309.930 744.102, 309.748 759.561 C 309.463 783.604, 310.063 785.946, 317.920 791.496 C 321.585 794.085, 323.222 794.541, 329.960 794.847 C 342.546 795.418, 350.114 790.684, 352.896 780.500 C 353.504 778.276, 353.991 768.193, 353.994 757.785 C 353.999 740.769, 353.836 738.983, 352.196 738.105 C 348.593 736.177, 348.201 737.964, 347.833 758 C 347.433 779.754, 346.499 783.505, 340.580 787.114 C 336.306 789.721, 326.631 789.682, 322.299 787.040 C 316.501 783.505, 316 781.297, 316 759.250 C 316 737.887, 315.401 735.188, 311.248 737.826 M 367.250 737.597 C 365.678 738.313, 365.415 793.521, 366.979 794.487 C 367.518 794.820, 368.853 794.614, 369.947 794.028 C 371.721 793.079, 371.965 791.757, 372.217 781.732 L 372.500 770.500 377.497 770.185 C 387.659 769.545, 387.964 769.765, 394.039 782.099 C 399.499 793.185, 401.475 795.523, 404.428 794.389 C 406.788 793.484, 406.383 791.561, 402.059 783.159 C 399.891 778.946, 397.430 774.088, 396.591 772.362 L 395.064 769.223 398.973 766.636 C 402.047 764.602, 403.234 762.923, 404.530 758.775 C 406.084 753.797, 406.074 753.190, 404.339 748.007 C 402.764 743.302, 401.866 742.166, 398.079 740.087 C 394.182 737.949, 392.165 737.623, 381.079 737.344 C 374.160 737.170, 367.938 737.284, 367.250 737.597 M 540.152 737.885 C 539.410 738.355, 538.965 739.586, 539.163 740.620 C 539.481 742.282, 540.650 742.533, 549.262 742.786 L 559 743.072 559.081 765.286 C 559.126 777.504, 559.253 788.730, 559.363 790.232 C 559.614 793.635, 561.154 795.262, 563.333 794.426 C 565.292 793.674, 565.411 792.260, 565.046 774 C 564.898 766.575, 565.104 756.578, 565.504 751.785 L 566.231 743.070 575.865 742.785 C 584.813 742.520, 585.522 742.349, 585.802 740.380 C 586.017 738.875, 585.438 738.082, 583.802 737.644 C 580.280 736.701, 541.684 736.914, 540.152 737.885 M 592.250 738.102 C 591.313 739.075, 591 746.112, 591 766.165 C 591 791.585, 591.097 792.982, 592.931 793.963 C 594.390 794.744, 595.248 794.609, 596.447 793.410 C 597.709 792.148, 597.993 789.835, 597.836 782.108 C 597.728 776.765, 597.972 771.855, 598.378 771.197 C 598.835 770.458, 601.715 770, 605.904 770 C 614.084 770, 613.994 769.918, 620.836 783.622 C 625.971 793.906, 628.231 796.197, 630.755 793.674 C 631.954 792.474, 631.346 790.663, 626.505 781.009 L 620.855 769.744 624.448 766.782 C 629.207 762.860, 631 759.141, 631 753.198 C 631 747.391, 628.221 742.617, 623.100 739.627 C 620.318 738.002, 617.348 737.569, 606.604 737.224 C 596.721 736.907, 593.193 737.123, 592.250 738.102 M 657.253 737.822 C 656.568 738.258, 651.069 750.736, 645.034 765.552 C 635.321 789.400, 634.232 792.661, 635.550 793.978 C 637.903 796.331, 640.162 794.138, 643.263 786.489 C 644.782 782.741, 646.525 779.073, 647.135 778.337 C 647.947 777.358, 651.424 777, 660.102 777 L 671.959 777 673.844 780.750 C 674.881 782.813, 676.257 786.133, 676.902 788.129 C 678.329 792.545, 681.128 795.272, 683.355 794.417 C 685.547 793.576, 685.428 791.157, 682.911 785.333 C 681.763 782.675, 677.008 771.058, 672.346 759.519 C 667.684 747.979, 663.336 738.198, 662.685 737.784 C 661.149 736.808, 658.825 736.824, 657.253 737.822 M 683.250 737.662 C 680.896 738.612, 680.208 736.550, 697.839 781.341 C 704.360 797.907, 707.607 798.883, 712.553 785.765 C 714.059 781.769, 718.601 770.021, 722.646 759.657 C 726.691 749.294, 730 740.229, 730 739.514 C 730 737.735, 727.222 736.811, 725.173 737.907 C 724.172 738.443, 720.111 747.850, 715.137 761.154 C 710.542 773.444, 706.613 783.682, 706.404 783.904 C 705.823 784.523, 701.945 775.199, 695.005 756.500 C 689.436 741.492, 687.033 736.800, 685.059 737.079 C 684.751 737.122, 683.938 737.385, 683.250 737.662 M 737.250 737.662 C 736.292 738.049, 736 744.664, 736 765.976 C 736 787.331, 736.290 793.884, 737.250 794.210 C 739.396 794.937, 767.781 795.204, 769.945 794.517 C 771.268 794.097, 772 793.008, 772 791.459 L 772 789.053 757.250 788.777 L 742.500 788.500 742.214 778.750 L 741.928 769 753.714 768.985 C 766.197 768.968, 768.415 768.402, 767.837 765.380 C 767.514 763.692, 766.199 763.449, 754.989 763 L 742.500 762.500 742.500 753 L 742.500 743.500 756.988 743 C 770.157 742.546, 771.509 742.329, 771.837 740.620 C 772.035 739.586, 771.590 738.355, 770.848 737.885 C 769.434 736.989, 739.413 736.790, 737.250 737.662 M 781.250 737.662 C 780.292 738.049, 780 744.664, 780 765.976 C 780 787.319, 780.291 793.890, 781.250 794.233 C 783.619 795.079, 814.348 794.052, 815.306 793.094 C 815.834 792.566, 816 791.442, 815.675 790.595 C 815.188 789.327, 812.562 789.006, 800.792 788.778 L 786.500 788.500 786.232 763.548 C 785.947 736.998, 785.727 735.856, 781.250 737.662 M 269.007 743.534 C 264.402 745.609, 261.282 748.613, 258.658 753.500 C 255.786 758.847, 255.646 772.698, 258.410 778 C 262.570 785.983, 267.276 789, 275.564 789 C 285.669 789, 291.968 783.464, 294.626 772.245 C 296.175 765.705, 295.173 758.264, 291.864 751.750 C 288.059 744.258, 276.569 740.128, 269.007 743.534 M 488.635 744.073 C 485.323 746.678, 485.201 750.516, 488.284 755.102 C 491.381 759.708, 493.950 759.856, 498.373 755.685 C 503.423 750.922, 503.399 745.826, 498.316 743.150 C 495.042 741.426, 491.579 741.756, 488.635 744.073 M 372.667 743.667 C 372.300 744.033, 372 748.758, 372 754.167 C 372 765.345, 370.948 764.344, 382.500 764.159 C 394.556 763.966, 397.578 762.374, 398.671 755.641 C 400.084 746.935, 394.628 743, 381.146 743 C 376.849 743, 373.033 743.300, 372.667 743.667 M 598.429 744.325 C 598.149 745.054, 598.051 749.891, 598.210 755.075 L 598.500 764.500 606 764.435 C 617.519 764.335, 620.546 763.471, 622.939 759.598 C 627.003 753.022, 624.432 746.047, 617.205 744.040 C 611.671 742.503, 599.054 742.695, 598.429 744.325 M 654.604 758.505 C 652.072 764.833, 650 770.233, 650 770.505 C 650 770.777, 654.275 771, 659.500 771 C 666.428 771, 669.003 770.662, 669.010 769.750 C 669.025 767.909, 660.611 747.005, 659.854 747.002 C 659.499 747.001, 657.136 752.177, 654.604 758.505 M 484.424 770.251 C 481.780 772.673, 480.732 774.577, 480.310 777.723 C 479.795 781.567, 480.060 782.260, 483.272 785.472 C 486.483 788.683, 487.311 789, 492.496 789 C 498.718 789, 503.595 786.851, 504.607 783.663 C 505.062 782.228, 503.406 779.942, 497.881 774.380 C 493.849 770.321, 489.970 767, 489.260 767 C 488.551 767, 486.374 768.463, 484.424 770.251 M 526.750 1003.732 C 529.087 1003.943, 532.913 1003.943, 535.250 1003.732 C 537.587 1003.522, 535.675 1003.349, 531 1003.349 C 526.325 1003.349, 524.413 1003.522, 526.750 1003.732" stroke="none" fill="#f9f9f9" fill-rule="evenodd"/></svg>